#!OML:ASF F:\VICON\USERDATA\INSTALL\rory3\rory3.ASF
:FULLY-SPECIFIED
:DEGREES
1190
root -4.77588 17.6189 15.6603 -181.283 -23.4068 177.553
lowerback 13.588 2.66621 2.73992
upperback 1.70666 3.78306 0.0510214
thorax -5.62747 1.72981 -2.16546
lowerneck -16.0791 2.77316 -9.64701
upperneck 39.9829 2.29782 5.15437
head 17.0275 -0.888163 4.1656
rclavicle -2.62396e-014 1.90833e-014
rhumerus -31.1799 -8.2999 -73.9611
rradius 36.5724
rwrist 6.1548
rhand -17.5684 9.79878
rfingers 7.12502
rthumb 8.68682 -20.0025
lclavicle -2.62396e-014 1.90833e-014
lhumerus -29.3991 19.4802 76.0626
lradius 33.3401
lwrist -1.32013
lhand -21.9848 24.0419
lfingers 7.12502
lthumb 4.42348 53.9757
rfemur -0.0781998 -1.21419 18.4772
rtibia 30.0099
rfoot -23.0442 -2.11803
rtoes 1.92144
lfemur -21.2726 3.25865 -17.2731
ltibia 50.0194
lfoot -10.8094 -15.9813
ltoes -22.5448
1191
root -4.83039 17.6343 15.6862 -181.282 -23.0154 177.403
lowerback 13.5741 2.69617 2.59707
upperback 1.70255 3.79962 0.015951
thorax -5.63028 1.7408 -2.12457
lowerneck -16.0577 2.71702 -9.76769
upperneck 40.0097 2.16452 5.30143
head 17.0454 -0.949986 4.23002
rclavicle 1.11121e-013 -1.03368e-014
rhumerus -31.166 -8.64352 -73.7838
rradius 36.7229
rwrist 5.9169
rhand -17.8822 9.71027
rfingers 7.12502
rthumb 8.384 -20.1033
lclavicle 1.11121e-013 -1.03368e-014
lhumerus -29.5366 19.484 76.1896
lradius 32.9806
lwrist -1.6223
lhand -21.9553 24.0328
lfingers 7.12502
lthumb 4.4519 53.9661
rfemur 0.147494 -0.962501 18.0655
rtibia 29.5735
rfoot -22.8443 -1.83783
rtoes 1.75181
lfemur -21.1807 2.19661 -16.9548
ltibia 49.4051
lfoot -11.1843 -14.803
ltoes -21.5693
1192
root -4.88821 17.6539 15.7118 -181.326 -22.6706 177.335
lowerback 13.5848 2.68714 2.57676
upperback 1.71404 3.78083 -0.0265147
thorax -5.62335 1.73136 -2.15466
lowerneck -16.0526 2.64922 -9.86792
upperneck 39.9518 2.03127 5.44336
head 17.022 -0.998599 4.28656
rclavicle -4.30866e-014 1.98785e-014
rhumerus -31.2188 -9.06045 -73.6388
rradius 37.0177
rwrist 5.67873
rhand -18.0951 9.83023
rfingers 7.12502
rthumb 8.17858 -19.9915
lclavicle -4.30866e-014 1.98785e-014
lhumerus -29.6325 19.4061 76.3079
lradius 32.7037
lwrist -1.87961
lhand -21.72 24.1141
lfingers 7.12502
lthumb 4.67919 54.0424
rfemur 0.390375 -0.673863 17.7519
rtibia 29.1677
rfoot -22.6422 -1.63658
rtoes 1.69684
lfemur -21.0297 1.07642 -16.5537
ltibia 48.6676
lfoot -11.7533 -13.4516
ltoes -22.0957
1193
root -4.94674 17.6702 15.7392 -181.335 -22.2813 177.293
lowerback 13.6509 2.6628 2.59803
upperback 1.67356 3.75287 -0.0702908
thorax -5.69984 1.71519 -2.21282
lowerneck -16.0492 2.63228 -9.84991
upperneck 39.9273 1.98908 5.43696
head 17.0131 -1.01706 4.27048
rclavicle 3.57315e-014 4.77083e-015
rhumerus -31.1863 -9.38946 -73.5073
rradius 37.1296
rwrist 5.31494
rhand -18.18 10.1542
rfingers 7.12502
rthumb 8.09659 -19.6707
lclavicle 3.57315e-014 4.77083e-015
lhumerus -29.7454 19.3607 76.399
lradius 32.4054
lwrist -2.18035
lhand -21.6582 24.2466
lfingers 7.12502
lthumb 4.73884 54.1736
rfemur 0.571573 -0.474521 17.4411
rtibia 28.7349
rfoot -22.427 -1.37888
rtoes 1.28139
lfemur -20.878 -0.00164001 -16.1131
ltibia 47.8134
lfoot -12.0379 -12.3537
ltoes -22.4991
1194
root -5.00602 17.6821 15.7678 -181.27 -21.745 177.276
lowerback 13.6123 2.68072 2.58478
upperback 1.62528 3.77694 -0.0821935
thorax -5.72846 1.72749 -2.22179
lowerneck -16.0301 2.61969 -9.78313
upperneck 39.8687 1.98139 5.32929
head 16.9814 -1.02478 4.20352
rclavicle 7.45443e-016 -1.82882e-014
rhumerus -31.0425 -9.49248 -73.4368
rradius 37.1533
rwrist 4.77864
rhand -18.2491 9.99639
rfingers 7.12502
rthumb 8.02993 -19.8311
lclavicle 7.45443e-016 -1.82882e-014
lhumerus -29.9125 19.4583 76.4764
lradius 32.18
lwrist -2.45971
lhand -21.6366 24.0725
lfingers 7.12502
lthumb 4.75963 53.999
rfemur 0.610964 -0.2019 17.137
rtibia 28.3043
rfoot -22.2178 -0.968538
rtoes 1.43581
lfemur -20.7467 -0.978474 -15.6339
ltibia 46.8572
lfoot -12.2412 -11.5613
ltoes -22.3792
1195
root -5.06818 17.6933 15.7973 -181.285 -21.0678 177.588
lowerback 13.502 2.73843 2.88431
upperback 1.61101 3.90005 -0.0122268
thorax -5.66074 1.78379 -2.33165
lowerneck -16.1143 2.54767 -9.78363
upperneck 39.7916 1.93072 5.23089
head 16.971 -1.05316 4.14891
rclavicle -5.31252e-014 -4.77083e-015
rhumerus -30.8661 -9.67418 -73.3599
rradius 37.304
rwrist 4.50235
rhand -18.274 9.57587
rfingers 7.12502
rthumb 8.00594 -20.2525
lclavicle -5.31252e-014 -4.77083e-015
lhumerus -30.0224 19.5752 76.5841
lradius 31.9786
lwrist -2.75177
lhand -21.3744 23.5843
lfingers 7.12502
lthumb 5.01284 53.5051
rfemur 0.565151 0.244199 17.1921
rtibia 27.9017
rfoot -22.0432 -0.691588
rtoes 1.50735
lfemur -20.6389 -1.83514 -14.7847
ltibia 45.806
lfoot -12.2726 -11.1776
ltoes -21.3322
